grf
version=1
nRows=17
nColumns=37
inDegrees=no
endheader
time	ground_force_1_vx	ground_force_1_vy	ground_force_1_vz	ground_force_1_px	ground_force_1_py	ground_force_1_pz	ground_moment_1_mx	ground_moment_1_my	ground_moment_1_mz	ground_force_2_vx	ground_force_2_vy	ground_force_2_vz	ground_force_2_px	ground_force_2_py	ground_force_2_pz	ground_moment_2_mx	ground_moment_2_my	ground_moment_2_mz	ground_force_3_vx	ground_force_3_vy	ground_force_3_vz	ground_force_3_px	ground_force_3_py	ground_force_3_pz	ground_moment_3_mx	ground_moment_3_my	ground_moment_3_mz	ground_force_4_vx	ground_force_4_vy	ground_force_4_vz	ground_force_4_px	ground_force_4_py	ground_force_4_pz	ground_moment_4_mx	ground_moment_4_my	ground_moment_4_mz
      0.00000000	      0.00000000	     -0.00000000	      0.00000000	      0.00000000	      0.00000000	      0.00000000	      0.00000000	      0.00000000	      0.00000000	    -17.25561905	     68.27389526	   -505.60327148	   -290.06001977	  -1105.63135922	      0.00000000	      0.00000000	      0.00000000	   5657.41986693	      1.06534593	    -44.43784342	   -353.18905640	   -295.41365826	   -690.88513160	      0.00000000	      0.00000000	     -0.00000000	  -2419.48170080	      0.00000000	     -0.00000000	      0.00000000	      0.00000000	      0.00000000	      0.00000000	      0.00000000	      0.00000000	      0.00000000
      0.01000000	      0.00000000	     -0.00000000	      0.00000000	      0.00000000	      0.00000000	      0.00000000	      0.00000000	      0.00000000	      0.00000000	    -17.43620110	     69.34568787	   -498.74307251	   -286.88455702	  -1106.26777869	      0.00000000	      0.00000000	      0.00000000	   5406.66852370	      2.96527618	    -47.10011317	   -374.68576050	   -304.14182283	   -694.58770729	      0.00000000	      0.00000000	     -0.00000000	  -2388.11067929	      0.00000000	     -0.00000000	      0.00000000	      0.00000000	      0.00000000	      0.00000000	      0.00000000	      0.00000000	      0.00000000
      0.02000000	      0.00000000	     -0.00000000	      0.00000000	      0.00000000	      0.00000000	      0.00000000	      0.00000000	      0.00000000	      0.00000000	    -18.09624100	     69.77562714	   -489.80715942	   -283.15161825	  -1108.08501252	      0.00000000	      0.00000000	      0.00000000	   5434.18606655	      6.51191104	    -47.65437755	   -387.81063843	   -311.28698262	   -695.43749867	      0.00000000	      0.00000000	     -0.00000000	  -2313.37271855	      0.00000000	     -0.00000000	      0.00000000	      0.00000000	      0.00000000	      0.00000000	      0.00000000	      0.00000000	      0.00000000
      0.03000000	      0.00000000	     -0.00000000	      0.00000000	      0.00000000	      0.00000000	      0.00000000	      0.00000000	      0.00000000	      0.00000000	    -18.60719872	     69.45978546	   -475.38018799	   -279.02773800	  -1109.49346528	      0.00000000	      0.00000000	      0.00000000	   5230.41441870	     10.70741796	    -49.09578036	   -390.69213867	   -316.03107880	   -697.45640703	      0.00000000	      0.00000000	      0.00000000	  -2356.57288715	      0.00000000	     -0.00000000	      0.00000000	      0.00000000	      0.00000000	      0.00000000	      0.00000000	      0.00000000	      0.00000000
      0.04000000	      0.00000000	     -0.00000000	      0.00000000	      0.00000000	      0.00000000	      0.00000000	      0.00000000	      0.00000000	      0.00000000	    -19.48561096	     67.90719604	   -464.50036621	   -275.04421833	  -1112.30074659	      0.00000000	      0.00000000	      0.00000000	   5377.13572438	     14.39532886	    -50.69395573	   -393.73718262	   -320.64254134	   -697.86013005	      0.00000000	      0.00000000	     -0.00000000	  -2383.32317749	      0.00000000	     -0.00000000	      0.00000000	      0.00000000	      0.00000000	      0.00000000	      0.00000000	      0.00000000	      0.00000000
      0.05000000	      0.00000000	     -0.00000000	      0.00000000	      0.00000000	      0.00000000	      0.00000000	      0.00000000	      0.00000000	      0.00000000	    -21.85256004	     65.76837158	   -450.93258667	   -271.29150979	  -1112.97883415	      0.00000000	      0.00000000	      0.00000000	   5249.66499084	     16.94375527	    -53.14575725	   -398.82565308	   -324.31378647	   -697.90566759	      0.00000000	      0.00000000	     -0.00000000	  -2349.68810272	      0.00000000	     -0.00000000	      0.00000000	      0.00000000	      0.00000000	      0.00000000	      0.00000000	      0.00000000	      0.00000000
      0.06000000	      0.00000000	     -0.00000000	      0.00000000	      0.00000000	      0.00000000	      0.00000000	      0.00000000	      0.00000000	      0.00000000	    -23.46236420	     63.37171936	   -436.73480225	   -267.75569100	  -1113.09484474	      0.00000000	      0.00000000	     -0.00000000	   5209.34143489	     19.00787824	    -55.27572035	   -404.51916504	   -328.43663062	   -697.61119921	      0.00000000	      0.00000000	     -0.00000000	  -2350.74933378	      0.00000000	     -0.00000000	      0.00000000	      0.00000000	      0.00000000	      0.00000000	      0.00000000	      0.00000000	      0.00000000
      0.07000000	      0.00000000	     -0.00000000	      0.00000000	      0.00000000	      0.00000000	      0.00000000	      0.00000000	      0.00000000	      0.00000000	    -24.72547913	     61.20428085	   -424.31765747	   -264.07532803	  -1114.19206308	      0.00000000	      0.00000000	      0.00000000	   4746.77068760	     20.95933420	    -56.54937164	   -407.45996094	   -331.79728894	   -697.85274349	      0.00000000	      0.00000000	     -0.00000000	  -2416.25134468	      0.00000000	     -0.00000000	      0.00000000	      0.00000000	      0.00000000	      0.00000000	      0.00000000	      0.00000000	      0.00000000
      0.08000000	      0.00000000	     -0.00000000	      0.00000000	      0.00000000	      0.00000000	      0.00000000	      0.00000000	      0.00000000	      0.00000000	    -25.10561943	     59.78869629	   -413.89160156	   -260.98355217	  -1116.11579072	      0.00000000	      0.00000000	     -0.00000000	   4699.20521022	     22.12184412	    -56.48867228	   -409.59207153	   -334.55325042	   -698.60267896	      0.00000000	      0.00000000	     -0.00000000	  -2364.98335763	      0.00000000	     -0.00000000	      0.00000000	      0.00000000	      0.00000000	      0.00000000	      0.00000000	      0.00000000	      0.00000000
      0.09000000	      0.00000000	     -0.00000000	      0.00000000	      0.00000000	      0.00000000	      0.00000000	      0.00000000	      0.00000000	      0.00000000	    -25.35021782	     58.71400070	   -401.67990112	   -258.98802142	  -1115.34940083	      0.00000000	      0.00000000	      0.00000000	   4433.96594744	     22.78455047	    -56.80489930	   -413.02648926	   -336.57684824	   -698.50121551	      0.00000000	      0.00000000	     -0.00000000	  -2195.50171008	      0.00000000	     -0.00000000	      0.00000000	      0.00000000	      0.00000000	      0.00000000	      0.00000000	      0.00000000	      0.00000000
      0.10000000	      0.00000000	     -0.00000000	      0.00000000	      0.00000000	      0.00000000	      0.00000000	      0.00000000	      0.00000000	      0.00000000	    -24.58477211	     58.73060989	   -393.88580322	   -257.90557479	  -1117.00647749	      0.00000000	      0.00000000	      0.00000000	   4173.78173797	     21.89732241	    -57.38620187	   -418.33969116	   -337.51408368	   -698.49510580	      0.00000000	      0.00000000	      0.00000000	  -2058.44752392	      0.00000000	     -0.00000000	      0.00000000	      0.00000000	      0.00000000	      0.00000000	      0.00000000	      0.00000000	      0.00000000
      0.11000000	      0.00000000	     -0.00000000	      0.00000000	      0.00000000	      0.00000000	      0.00000000	      0.00000000	      0.00000000	      0.00000000	    -23.65546036	     59.17583847	   -385.99432373	   -256.55232822	  -1118.25868076	      0.00000000	      0.00000000	      0.00000000	   3818.06915111	     20.10016112	    -59.46906456	   -423.20520020	   -337.78458817	   -698.66054589	      0.00000000	     -0.00000000	     -0.00000000	  -1867.15605250	      0.00000000	     -0.00000000	      0.00000000	      0.00000000	      0.00000000	      0.00000000	      0.00000000	      0.00000000	      0.00000000
      0.12000000	      0.00000000	     -0.00000000	      0.00000000	      0.00000000	      0.00000000	      0.00000000	      0.00000000	      0.00000000	      0.00000000	    -22.85295105	     59.09346008	   -379.16802979	   -255.88149618	  -1117.56873755	      0.00000000	      0.00000000	      0.00000000	   3721.02806914	     19.17602381	    -61.67911697	   -432.01470947	   -337.56523687	   -696.42067879	      0.00000000	      0.00000000	     -0.00000000	  -1858.02936543	      0.00000000	     -0.00000000	      0.00000000	      0.00000000	      0.00000000	      0.00000000	      0.00000000	      0.00000000	      0.00000000
      0.13000000	      0.00000000	     -0.00000000	      0.00000000	      0.00000000	      0.00000000	      0.00000000	      0.00000000	      0.00000000	      0.00000000	    -21.98291588	     57.92754364	   -372.54562378	   -256.06778381	  -1119.35435768	      0.00000000	      0.00000000	      0.00000000	   3710.04862516	     18.87296690	    -63.91579221	   -436.87695312	   -338.08065881	   -697.68349236	      0.00000000	      0.00000000	     -0.00000000	  -1989.18876640	      0.00000000	     -0.00000000	      0.00000000	      0.00000000	      0.00000000	      0.00000000	      0.00000000	      0.00000000	      0.00000000
      0.14000000	      0.00000000	     -0.00000000	      0.00000000	      0.00000000	      0.00000000	      0.00000000	      0.00000000	      0.00000000	      0.00000000	    -21.35152435	     56.25637817	   -366.42700195	   -257.68342278	  -1118.48764629	      0.00000000	      0.00000000	      0.00000000	   3671.66382127	     18.08222004	    -65.90268865	   -442.05514526	   -337.36833561	   -697.34113289	      0.00000000	      0.00000000	     -0.00000000	  -1636.58807684	      0.00000000	     -0.00000000	      0.00000000	      0.00000000	      0.00000000	      0.00000000	      0.00000000	      0.00000000	      0.00000000
      0.15000000	      0.00000000	     -0.00000000	      0.00000000	      0.00000000	      0.00000000	      0.00000000	      0.00000000	      0.00000000	      0.00000000	    -19.77427864	     53.99127960	   -357.85745239	   -258.74639726	  -1117.57091985	      0.00000000	      0.00000000	     -0.00000000	   3847.46688530	     16.78122691	    -67.80140833	   -449.03698730	   -335.78864794	   -695.99459197	      0.00000000	      0.00000000	     -0.00000000	  -1524.37253996	      0.00000000	     -0.00000000	      0.00000000	      0.00000000	      0.00000000	      0.00000000	      0.00000000	      0.00000000	      0.00000000
      0.16000000	      0.00000000	     -0.00000000	      0.00000000	      0.00000000	      0.00000000	      0.00000000	      0.00000000	      0.00000000	      0.00000000	    -18.34043503	     52.40867615	   -351.91342163	   -261.78115473	  -1115.85351783	      0.00000000	      0.00000000	      0.00000000	   3819.90784037	     15.07401049	    -69.55264414	   -452.15136719	   -335.26638270	   -696.77011288	      0.00000000	      0.00000000	     -0.00000000	  -1725.00379557	      0.00000000	     -0.00000000	      0.00000000	      0.00000000	      0.00000000	      0.00000000	      0.00000000	      0.00000000	      0.00000000
